<?xml version="1.0" encoding="utf-8"?>
<!-- Generator: Adobe Illustrator 16.0.0, SVG Export Plug-In . SVG Version: 6.00 Build 0)  -->
<!DOCTYPE svg PUBLIC "-//W3C//DTD SVG 1.1//EN" "http://www.w3.org/Graphics/SVG/1.1/DTD/svg11.dtd">
<svg version="1.1" id="Layer_1" xmlns="http://www.w3.org/2000/svg" xmlns:xlink="http://www.w3.org/1999/xlink" x="0px" y="0px"
	 width="79.2px" height="79.2px" viewBox="0 0 79.2 79.2" enable-background="new 0 0 79.2 79.2" xml:space="preserve">
<g>
	<rect x="2.18" y="2.345" fill="#F26640" width="75.36" height="75.361"/>
	<path fill="#FFFFFF" d="M34.612,9.708H31.18l-2.316,8.901l-2.409-8.901h-3.573c0.715,2.1,1.461,4.212,2.177,6.315
		c1.088,3.161,1.768,5.544,2.075,7.172v9.181h3.396v-9.181L34.612,9.708z M43.685,26.906v-5.917c0-1.805-0.31-3.124-0.951-3.979
		c-0.849-1.153-2.038-1.731-3.571-1.731c-1.524,0-2.719,0.579-3.565,1.731c-0.651,0.855-0.958,2.174-0.958,3.979v5.917
		c0,1.796,0.307,3.126,0.958,3.974c0.846,1.151,2.041,1.729,3.565,1.729c1.533,0,2.722-0.578,3.571-1.729
		C43.375,30.032,43.685,28.702,43.685,26.906z M40.623,27.482c0,1.563-0.473,2.345-1.459,2.345c-0.989,0-1.462-0.782-1.462-2.345
		v-7.107c0-1.563,0.473-2.341,1.462-2.341c0.987,0,1.459,0.778,1.459,2.341V27.482z M55.005,32.375V15.483h-3.062v12.911
		c-0.68,0.958-1.322,1.433-1.934,1.433c-0.412,0-0.65-0.242-0.717-0.717c-0.038-0.099-0.038-0.473-0.038-1.191V15.483h-3.052V28.84
		c0,1.191,0.104,2.001,0.273,2.511c0.304,0.856,0.984,1.258,1.971,1.258c1.116,0,2.277-0.68,3.497-2.078v1.843H55.005z"/>
	<path fill="#FFFFFF" d="M64.92,52.877c0,3.907-0.002,8.053-0.878,11.848c-0.612,2.664-2.792,4.629-5.417,4.924
		c-6.215,0.693-12.507,0.697-18.769,0.693c-6.263,0.004-12.553,0-18.768-0.693c-2.625-0.295-4.805-2.26-5.417-4.924
		c-0.873-3.795-0.873-7.941-0.873-11.848c0-3.912,0.009-8.05,0.883-11.85c0.612-2.663,2.792-4.63,5.417-4.922
		c6.215-0.696,12.506-0.697,18.769-0.696c6.26-0.001,12.552,0,18.768,0.696c2.625,0.292,4.805,2.259,5.417,4.922
		C64.924,44.827,64.92,48.965,64.92,52.877z"/>
	<path fill="#F26640" d="M29.096,44.445v-3.16H18.534v3.16h3.563V63.72h3.368V44.445H29.096z M35.215,63.72v-1.822
		c-1.202,1.38-2.346,2.054-3.46,2.054c-0.977,0-1.649-0.396-1.951-1.244c-0.167-0.508-0.269-1.304-0.269-2.485V47.003h3.028v12.308
		c0,0.708,0,1.08,0.028,1.178c0.073,0.469,0.303,0.708,0.708,0.708c0.607,0,1.246-0.47,1.915-1.416V47.003h3.033V63.72H35.215z
		 M46.726,58.943c0,1.51-0.445,2.253-1.318,2.253c-0.498,0-1.003-0.238-1.51-0.743v-10.19c0.506-0.498,1.012-0.736,1.51-0.736
		c0.874,0,1.318,0.775,1.318,2.282V58.943z M49.753,58.705v-6.659c0-1.581-0.103-2.688-0.305-3.361
		c-0.404-1.251-1.213-1.886-2.421-1.886c-1.112,0-2.15,0.61-3.129,1.812v-7.327h-3.028V63.72h3.028v-1.619
		c1.012,1.251,2.051,1.851,3.129,1.851c1.208,0,2.017-0.635,2.421-1.879C49.65,61.365,49.753,60.25,49.753,58.705z M58.156,53.392
		h-3.027v-1.545c0-1.545,0.506-2.32,1.519-2.32c1,0,1.508,0.775,1.508,2.32V53.392z M61.187,58.372v-0.441h-3.093
		c0,1.216-0.037,1.885-0.064,2.05c-0.174,0.81-0.611,1.216-1.355,1.216c-1.039,0-1.545-0.771-1.545-2.32v-2.961h6.057v-3.462
		c0-1.788-0.305-3.095-0.939-3.939c-0.849-1.146-2.054-1.714-3.573-1.714c-1.545,0-2.754,0.568-3.627,1.714
		c-0.645,0.845-0.936,2.151-0.936,3.939v5.855c0,1.773,0.33,3.095,0.973,3.929c0.874,1.143,2.08,1.714,3.667,1.714
		c1.581,0,2.823-0.6,3.663-1.813c0.366-0.536,0.604-1.146,0.706-1.814C61.148,60.019,61.187,59.346,61.187,58.372z"/>
</g>
</svg>
