<?xml version="1.0" encoding="utf-8"?>
<!-- Generator: Adobe Illustrator 16.0.0, SVG Export Plug-In . SVG Version: 6.00 Build 0)  -->
<!DOCTYPE svg PUBLIC "-//W3C//DTD SVG 1.1//EN" "http://www.w3.org/Graphics/SVG/1.1/DTD/svg11.dtd">
<svg version="1.1" id="Layer_1" xmlns="http://www.w3.org/2000/svg" xmlns:xlink="http://www.w3.org/1999/xlink" x="0px" y="0px"
	 width="79.2px" height="79.2px" viewBox="0 0 79.2 79.2" enable-background="new 0 0 79.2 79.2" xml:space="preserve">
<g>
	<rect x="2.187" y="2.224" fill="#7F3F98" width="75.361" height="75.361"/>
	<g>
		<polygon fill="#FFFFFF" points="53.723,58.988 8.371,58.988 26.011,20.821 71.363,20.821 		"/>
		<g>
			<path fill="#7F3F98" d="M24.961,51.78V27.523h2.974v8.817h0.067c1.284-1.858,3.041-2.702,5.102-2.737
				c4.696,0,7.365,3.853,7.365,8.817c0,4.224-1.757,9.865-7.771,9.865c-3.006,0-4.256-1.723-4.865-2.702h-0.067v2.196H24.961z
				 M32.563,36.273c-4.291,0-4.764,4.628-4.764,7.5c0,4.695,2.94,5.947,4.832,5.947c3.243,0,4.764-2.94,4.764-6.825
				C37.394,40.631,37.158,36.273,32.563,36.273z"/>
			<path fill="#7F3F98" d="M53.902,40.057c-0.372-2.364-1.69-3.784-4.19-3.784c-3.683,0-4.864,3.514-4.864,6.655
				c0,3.041,0.743,6.792,4.831,6.792c1.993,0,3.716-1.488,4.224-4.189h2.871c-0.304,2.803-2.027,6.756-7.196,6.756
				c-4.966,0-7.905-3.75-7.905-8.851c0-5.473,2.635-9.832,8.479-9.832c4.629,0,6.385,3.379,6.622,6.453H53.902z"/>
		</g>
	</g>
</g>
</svg>
