<?xml version="1.0" encoding="utf-8"?>
<!-- Generator: Adobe Illustrator 16.0.0, SVG Export Plug-In . SVG Version: 6.00 Build 0)  -->
<!DOCTYPE svg PUBLIC "-//W3C//DTD SVG 1.1//EN" "http://www.w3.org/Graphics/SVG/1.1/DTD/svg11.dtd">
<svg version="1.1" id="Layer_1" xmlns="http://www.w3.org/2000/svg" xmlns:xlink="http://www.w3.org/1999/xlink" x="0px" y="0px"
	 width="79.2px" height="79.2px" viewBox="0 0 79.2 79.2" enable-background="new 0 0 79.2 79.2" xml:space="preserve">
<g>
	<rect x="2.36" y="1.8" fill="#F26640" width="75" height="75"/>
	<path fill="#FFFFFF" d="M16.539,50.768c0.114,0,0.211-0.094,0.228-0.226l0.621-4.923l-0.619-5.035
		c-0.019-0.132-0.115-0.227-0.229-0.227c-0.117,0-0.217,0.097-0.232,0.227l-0.543,5.035l0.543,4.921
		C16.322,50.672,16.421,50.768,16.539,50.768z"/>
	<path fill="#FFFFFF" d="M14.491,48.896c0.112,0,0.203-0.087,0.22-0.218l0.481-3.059l-0.481-3.116
		c-0.017-0.126-0.107-0.218-0.22-0.218c-0.117,0-0.208,0.091-0.225,0.22l-0.402,3.114l0.402,3.058
		C14.283,48.806,14.374,48.896,14.491,48.896z"/>
	<path fill="#FFFFFF" d="M18.988,39.647c-0.015-0.16-0.132-0.277-0.277-0.277c-0.145,0-0.262,0.117-0.275,0.277l-0.519,5.972
		l0.519,5.754c0.014,0.159,0.131,0.274,0.275,0.274c0.146,0,0.263-0.115,0.277-0.274l0.587-5.754L18.988,39.647z"/>
	<path fill="#FFFFFF" d="M20.906,51.879c0.17,0,0.308-0.14,0.324-0.323l0.555-5.935l-0.555-6.139
		c-0.017-0.184-0.154-0.323-0.324-0.323c-0.173,0-0.313,0.139-0.324,0.324l-0.49,6.138l0.49,5.935
		C20.593,51.739,20.733,51.879,20.906,51.879z"/>
	<path fill="#FFFFFF" d="M23.116,51.975c0.198,0,0.357-0.159,0.374-0.371l-0.002,0.001l0.522-5.985l-0.522-5.695
		c-0.015-0.209-0.174-0.37-0.372-0.37c-0.201,0-0.359,0.161-0.371,0.372l-0.462,5.694l0.462,5.983
		C22.756,51.816,22.915,51.975,23.116,51.975z"/>
	<path fill="#FFFFFF" d="M26.254,45.622l-0.49-9.26c-0.014-0.235-0.196-0.422-0.421-0.422c-0.223,0-0.405,0.187-0.419,0.422
		l-0.434,9.26l0.434,5.983c0.014,0.236,0.196,0.42,0.419,0.42c0.225,0,0.407-0.185,0.421-0.42v0.001L26.254,45.622z"/>
	<path fill="#FFFFFF" d="M27.593,52.036c0.247,0,0.452-0.205,0.464-0.467v0.004l0.458-5.949l-0.458-11.38
		c-0.012-0.262-0.217-0.467-0.464-0.467c-0.253,0-0.456,0.205-0.47,0.467l-0.403,11.38l0.405,5.947
		C27.137,51.831,27.34,52.036,27.593,52.036z"/>
	<path fill="#FFFFFF" d="M29.856,32.779c-0.278,0-0.503,0.229-0.515,0.517l-0.375,12.33l0.375,5.885
		c0.012,0.287,0.236,0.514,0.515,0.514c0.277,0,0.504-0.225,0.514-0.515v0.003l0.426-5.887l-0.426-12.33
		C30.36,33.006,30.133,32.779,29.856,32.779z"/>
	<path fill="#FFFFFF" d="M32.138,52.036c0.306,0,0.549-0.247,0.561-0.564v0.003l0.394-5.85l-0.394-12.744
		c-0.012-0.316-0.255-0.564-0.561-0.564c-0.308,0-0.555,0.248-0.56,0.564l-0.354,12.744l0.354,5.85
		C31.583,51.789,31.831,52.036,32.138,52.036z"/>
	<path fill="#FFFFFF" d="M34.439,52.03c0.33,0,0.598-0.27,0.607-0.612v0.005l0.362-5.796l-0.362-12.419
		c-0.01-0.342-0.277-0.611-0.607-0.611c-0.332,0-0.6,0.269-0.609,0.611l-0.318,12.419l0.32,5.793
		C33.839,51.76,34.107,52.03,34.439,52.03z"/>
	<path fill="#FFFFFF" d="M37.74,45.626L37.412,33.66C37.404,33.291,37.115,33,36.756,33c-0.359,0-0.648,0.29-0.656,0.662
		l-0.294,11.964l0.294,5.758c0.008,0.366,0.297,0.656,0.656,0.656c0.358,0,0.647-0.29,0.655-0.662v0.005L37.74,45.626z"/>
	<path fill="#FFFFFF" d="M39.091,52.052c0.381,0,0.696-0.317,0.702-0.707v0.003l0.298-5.719l-0.298-14.24
		c-0.006-0.391-0.321-0.708-0.702-0.708S38.396,31,38.388,31.391l-0.265,14.232l0.265,5.725
		C38.396,51.735,38.71,52.052,39.091,52.052z"/>
	<path fill="#FFFFFF" d="M41.418,29.342c-0.411,0-0.745,0.341-0.752,0.757l-0.308,15.532l0.31,5.634
		c0.005,0.411,0.339,0.751,0.75,0.751c0.405,0,0.745-0.34,0.747-0.758v0.007l0.336-5.634L42.166,30.1
		C42.164,29.682,41.824,29.342,41.418,29.342z"/>
	<path fill="#FFFFFF" d="M43.546,52.057c0.017,0.001,18.757,0.01,18.877,0.01c3.763,0,6.812-3.086,6.812-6.895
		c0-3.807-3.049-6.894-6.812-6.894c-0.934,0-1.823,0.191-2.635,0.537c-0.539-6.215-5.688-11.088-11.968-11.088
		c-1.535,0-3.032,0.307-4.354,0.825c-0.515,0.201-0.652,0.409-0.656,0.811v21.879C42.816,51.664,43.138,52.015,43.546,52.057z"/>
</g>
</svg>
