<?xml version="1.0" encoding="utf-8"?>
<!-- Generator: Adobe Illustrator 16.0.0, SVG Export Plug-In . SVG Version: 6.00 Build 0)  -->
<!DOCTYPE svg PUBLIC "-//W3C//DTD SVG 1.1//EN" "http://www.w3.org/Graphics/SVG/1.1/DTD/svg11.dtd">
<svg version="1.1" id="Layer_1" xmlns="http://www.w3.org/2000/svg" xmlns:xlink="http://www.w3.org/1999/xlink" x="0px" y="0px"
	 width="79.2px" height="79.2px" viewBox="0 0 79.2 79.2" enable-background="new 0 0 79.2 79.2" xml:space="preserve">
<g>
	<rect x="2.2" y="2.903" fill="#FFFFFF" width="75" height="75"/>
	<linearGradient id="SVGID_1_" gradientUnits="userSpaceOnUse" x1="100.9258" y1="98.6318" x2="-42.0735" y2="-37.3676">
		<stop  offset="0" style="stop-color:#989CA0"/>
		<stop  offset="0.1884" style="stop-color:#BBBCBE"/>
		<stop  offset="0.3441" style="stop-color:#E4E6E7;stop-opacity:0.7339"/>
		<stop  offset="0.5054" style="stop-color:#E9E9EA"/>
		<stop  offset="0.6609" style="stop-color:#C1C3C6"/>
		<stop  offset="0.9892" style="stop-color:#FFFFFF"/>
	</linearGradient>
	<rect x="2.2" y="2.903" fill="url(#SVGID_1_)" width="75" height="75"/>
	<radialGradient id="SVGID_2_" cx="39.7002" cy="40.4033" r="37.5" gradientUnits="userSpaceOnUse">
		<stop  offset="0" style="stop-color:#000000;stop-opacity:0"/>
		<stop  offset="1" style="stop-color:#000000"/>
	</radialGradient>
	<rect x="2.2" y="2.903" opacity="0.2" fill="url(#SVGID_2_)" width="75" height="75"/>
</g>
<path fill="#FFFFFF" d="M21.836,15.089h36.892c3.504,0,6.37,2.866,6.37,6.371v36.892c0,3.504-2.866,6.368-6.37,6.368H21.836
	c-3.505,0-6.373-2.864-6.373-6.368V21.46C15.463,17.956,18.331,15.089,21.836,15.089z M51.622,20.602
	c-1.231,0-2.235,1.008-2.235,2.238v5.346c0,1.23,1.004,2.236,2.235,2.236h5.609c1.229,0,2.234-1.005,2.234-2.236v-5.346
	c0-1.23-1.006-2.238-2.234-2.238H51.622z M59.486,36.078H55.12c0.414,1.353,0.638,2.779,0.638,4.262
	c0,8.253-6.909,14.947-15.43,14.947c-8.519,0-15.429-6.694-15.429-14.947c0-1.483,0.226-2.909,0.638-4.262h-4.556v20.968
	c0,1.086,0.886,1.969,1.971,1.969h34.563c1.086,0,1.971-0.883,1.971-1.969V36.078z M40.327,30.14c-5.503,0-9.967,4.323-9.967,9.66
	c0,5.332,4.463,9.658,9.967,9.658c5.506,0,9.969-4.326,9.969-9.658C50.296,34.462,45.833,30.14,40.327,30.14z"/>
</svg>
