<?xml version="1.0" encoding="utf-8"?>
<!-- Generator: Adobe Illustrator 16.0.0, SVG Export Plug-In . SVG Version: 6.00 Build 0)  -->
<!DOCTYPE svg PUBLIC "-//W3C//DTD SVG 1.1//EN" "http://www.w3.org/Graphics/SVG/1.1/DTD/svg11.dtd">
<svg version="1.1" id="Layer_1" xmlns="http://www.w3.org/2000/svg" xmlns:xlink="http://www.w3.org/1999/xlink" x="0px" y="0px"
	 width="763.667px" height="271.586px" viewBox="0 0 763.667 271.586" enable-background="new 0 0 763.667 271.586"
	 xml:space="preserve">
<polygon fill="#7F3F98" stroke="#000000" stroke-width="5" stroke-miterlimit="10" points="158.739,19.405 29.801,247.302 
	59.429,247.302 188.368,19.405 "/>
<polygon fill="#EF4136" stroke="#000000" stroke-width="5" stroke-miterlimit="10" points="161.595,220.321 145.548,247.307 
	77.582,247.307 92.847,220.321 206.524,19.405 238.796,19.405 123.091,220.321 "/>
<g>
	<linearGradient id="SVGID_2_" gradientUnits="userSpaceOnUse" x1="159.3564" y1="133.356" x2="320.5703" y2="133.356">
		<stop  offset="0.0056" style="stop-color:#BBBCBE"/>
		<stop  offset="0.2921" style="stop-color:#989CA0"/>
		<stop  offset="0.6517" style="stop-color:#BFBEC2"/>
		<stop  offset="0.8652" style="stop-color:#9EA0A4"/>
		<stop  offset="1" style="stop-color:#A7A9AC"/>
		<stop  offset="1" style="stop-color:#C3C6CA"/>
	</linearGradient>
	<polygon fill="url(#SVGID_2_)" points="243.369,220.321 227.322,247.307 159.356,247.307 174.621,220.321 288.299,19.405 
		320.57,19.405 204.865,220.321 	"/>
	<polygon fill="none" stroke="#000000" stroke-width="5" stroke-miterlimit="10" points="243.369,220.321 227.322,247.307 
		159.356,247.307 174.621,220.321 288.299,19.405 320.57,19.405 204.865,220.321 	"/>
</g>
<g>
	<path d="M336.417,79.692h60.409L385.493,99.32H345.07l-32.185,55.749h34.776l-11.386,19.719h-34.774l-32.188,55.748h40.423
		l-11.333,19.63h-60.409L336.417,79.692z"/>
	<path d="M416.463,190.831l-26.369,59.335h-20.256l16.597-37.288h-30.563l-26.545,37.288h-20.166l41.897-59.065l81.888-111.408
		h30.204L416.463,190.831z M395.22,193.161l42.902-96.349l-68.357,96.349H395.22z"/>
	<path d="M489.191,218.705c-13.179,22.829-31.05,34.27-53.607,34.33c-22.469,0-27.097-11.441-13.883-34.33l62.097-107.552
		c13.178-22.826,31-34.239,53.467-34.239c22.527,0,27.2,11.414,14.022,34.239l-12.107,20.972h-19.988l12.109-20.972
		c5.588-9.681,3.828-14.551-5.279-14.611h-0.179c-9.083,0-16.436,4.872-22.059,14.611l-62.097,107.552
		c-5.622,9.74-3.863,14.612,5.279,14.612c9.2,0,16.614-4.872,22.237-14.612l25.356-43.916h-12.816l11.383-19.719h32.805
		L489.191,218.705z"/>
	<path d="M577.296,218.705c-13.179,22.829-31.049,34.27-53.607,34.33c-22.469,0-27.096-11.441-13.882-34.33l80.258-139.012h19.986
		l-80.258,139.012c-5.623,9.74-3.863,14.612,5.278,14.612c9.201,0,16.614-4.872,22.237-14.612l80.258-139.012h19.989
		L577.296,218.705z"/>
	<path d="M679.961,79.692h60.41L729.038,99.32h-40.422l-32.186,55.749h34.776l-11.387,19.719h-34.774l-32.187,55.748h40.423
		l-11.333,19.63h-60.41L679.961,79.692z"/>
</g>
</svg>
