<?xml version="1.0" encoding="utf-8"?>
<!-- Generator: Adobe Illustrator 16.0.0, SVG Export Plug-In . SVG Version: 6.00 Build 0)  -->
<!DOCTYPE svg PUBLIC "-//W3C//DTD SVG 1.1//EN" "http://www.w3.org/Graphics/SVG/1.1/DTD/svg11.dtd">
<svg version="1.1" id="Layer_1" xmlns="http://www.w3.org/2000/svg" xmlns:xlink="http://www.w3.org/1999/xlink" x="0px" y="0px"
	 width="763.667px" height="271.586px" viewBox="0 0 763.667 271.586" enable-background="new 0 0 763.667 271.586"
	 xml:space="preserve">
<rect x="-74.666" width="838.333" height="271.586"/>
<path fill="#7F3F98" d="M49.534,221.874L86.244,48.71h30.865L80.397,221.874H49.534z"/>
<g>
	<g>
		<path fill="#FFFFFF" d="M168.982,221.874L205.693,48.71h30.863l-30.322,145.458h40.788l-6.234,27.706H168.982z"/>
	</g>
	<linearGradient id="SVGID_2_" gradientUnits="userSpaceOnUse" x1="166.3174" y1="239.3232" x2="253.5446" y2="79.9083">
		<stop  offset="0.0056" style="stop-color:#BBBCBE"/>
		<stop  offset="0.2921" style="stop-color:#989CA0"/>
		<stop  offset="0.6517" style="stop-color:#BFBEC2"/>
		<stop  offset="0.8652" style="stop-color:#9EA0A4"/>
		<stop  offset="1" style="stop-color:#A7A9AC"/>
		<stop  offset="1" style="stop-color:#C3C6CA"/>
	</linearGradient>
	<path fill="url(#SVGID_2_)" d="M168.982,221.874L205.693,48.71h30.863l-30.322,145.458h40.788l-6.234,27.706H168.982z"/>
</g>
<path fill="#EF4136" d="M89.325,221.874L126.037,48.71H156.9l-30.322,145.458h40.787l-6.234,27.706H89.325z"/>
<path fill="#FFFFFF" d="M248.902,221.477l28.476-134.324h72.178l-5.552,26.865h-40.656l-5.373,24.715h39.402l-5.73,26.865h-39.402
	l-6.09,29.013h42.805l-5.73,26.866H248.902z"/>
<path fill="#FFFFFF" d="M331.828,221.477l57.849-134.324h37.968l0.717,134.324h-31.878l1.074-26.147h-24.716l-9.313,26.147H331.828z
	 M403.646,111.51h-0.359l-22.028,60.177h18.269L403.646,111.51z"/>
<path fill="#FFFFFF" d="M495.23,221.654l1.074-11.998h-0.359c-8.955,11.463-16.835,15.043-30.445,15.043
	c-26.686,0-31.343-18.446-26.148-42.804l11.641-55.162c6.27-29.193,22.566-42.804,51.4-42.804c26.867,0,40.478,11.462,34.567,38.864
	l-2.149,10.029h-31.522l1.613-7.343c2.507-11.462,2.148-17.193-6.089-17.373c-9.852-0.179-13.433,5.194-15.225,13.97l-14.149,66.445
	c-1.61,7.521,0.896,11.999,9.135,11.999c10.747,0,12.896-8.596,14.686-17.193l2.329-10.567h-11.282l5.193-24.178h42.804
	l-15.581,73.071H495.23z"/>
<path fill="#FFFFFF" d="M554.634,87.152h31.521l-21.491,101.37c-1.432,6.447-0.537,11.999,8.416,11.999
	c8.24,0,12.181-7.163,13.434-12.894l21.313-100.476h31.521l-20.597,97.249c-4.836,22.747-18.805,40.298-51.043,40.298
	c-26.687,0-39.581-12.715-33.67-40.298L554.634,87.152z"/>
<path fill="#FFFFFF" d="M621.681,221.477l28.478-134.324h72.176l-5.55,26.865h-40.656l-5.374,24.715h39.402l-5.732,26.865h-39.401
	l-6.088,29.013h42.806l-5.733,26.866H621.681z"/>
</svg>
