<?xml version="1.0" encoding="utf-8"?>
<!-- Generator: Adobe Illustrator 17.1.0, SVG Export Plug-In . SVG Version: 6.00 Build 0)  -->
<!DOCTYPE svg PUBLIC "-//W3C//DTD SVG 1.1//EN" "http://www.w3.org/Graphics/SVG/1.1/DTD/svg11.dtd">
<svg version="1.1" id="Layer_1" xmlns="http://www.w3.org/2000/svg" xmlns:xlink="http://www.w3.org/1999/xlink" x="0px" y="0px"
	 viewBox="0 0 763.7 271.6" enable-background="new 0 0 763.7 271.6" xml:space="preserve">
<path fill="#7F3F98" stroke="#000000" stroke-width="5" stroke-miterlimit="10" d="M43.5,221.9L80.2,48.7h30.9L74.4,221.9H43.5z"/>
<g>
	<g>
		<path fill="#FFFFFF" d="M167,221.9l36.7-173.2h30.9l-30.3,145.5H245l-6.2,27.7H167z"/>
	</g>
	
		<linearGradient id="SVGID_1_" gradientUnits="userSpaceOnUse" x1="164.3178" y1="32.6771" x2="251.5447" y2="192.0915" gradientTransform="matrix(1 0 0 -1 0 272)">
		<stop  offset="5.600000e-03" style="stop-color:#BBBCBE"/>
		<stop  offset="0.2921" style="stop-color:#989CA0"/>
		<stop  offset="0.6517" style="stop-color:#BFBEC2"/>
		<stop  offset="0.8652" style="stop-color:#9EA0A4"/>
		<stop  offset="1" style="stop-color:#A7A9AC"/>
		<stop  offset="1" style="stop-color:#C3C6CA"/>
	</linearGradient>
	<path fill="url(#SVGID_1_)" d="M167,221.9l36.7-173.2h30.9l-30.3,145.5H245l-6.2,27.7H167z"/>
	<path fill="none" stroke="#000000" stroke-width="5" stroke-miterlimit="10" d="M167,221.9l36.7-173.2h30.9l-30.3,145.5H245
		l-6.2,27.7H167z"/>
</g>
<path fill="#EF4136" stroke="#000000" stroke-width="5" stroke-miterlimit="10" d="M85.3,221.9L122,48.7h30.9l-30.3,145.5h40.8
	l-6.2,27.7H85.3z"/>
<path fill="#FFFFFF" stroke="#000000" stroke-width="5" stroke-miterlimit="10" d="M248.9,221.5l28.5-134.3h72.2L344,114h-40.7
	l-5.4,24.7h39.4l-5.7,26.9h-39.4l-6.1,29H329l-5.7,26.9H248.9z"/>
<path fill="#FFFFFF" stroke="#000000" stroke-width="5" stroke-miterlimit="10" d="M331.8,221.5l57.8-134.3h38l0.7,134.3h-31.9
	l1.1-26.1h-24.7l-9.3,26.1H331.8z M403.6,111.5h-0.4l-22,60.2h18.3L403.6,111.5z"/>
<path fill="#FFFFFF" stroke="#000000" stroke-width="5" stroke-miterlimit="10" d="M495.2,221.7l1.1-12h-0.4
	c-9,11.5-16.8,15-30.4,15c-26.7,0-31.3-18.4-26.1-42.8l11.6-55.2c6.3-29.2,22.6-42.8,51.4-42.8c26.9,0,40.5,11.5,34.6,38.9l-2.1,10
	h-31.5l1.6-7.3c2.5-11.5,2.1-17.2-6.1-17.4c-9.9-0.2-13.4,5.2-15.2,14l-14.1,66.4c-1.6,7.5,0.9,12,9.1,12c10.7,0,12.9-8.6,14.7-17.2
	l2.3-10.6h-11.3l5.2-24.2h42.8l-15.6,73.1L495.2,221.7L495.2,221.7z"/>
<path fill="#FFFFFF" stroke="#000000" stroke-width="5" stroke-miterlimit="10" d="M554.6,87.2h31.5l-21.5,101.4
	c-1.4,6.4-0.5,12,8.4,12c8.2,0,12.2-7.2,13.4-12.9l21.3-100.5h31.5l-20.6,97.2c-4.8,22.7-18.8,40.3-51,40.3
	c-26.7,0-39.6-12.7-33.7-40.3L554.6,87.2z"/>
<path fill="#FFFFFF" stroke="#000000" stroke-width="5" stroke-miterlimit="10" d="M621.7,221.5l28.5-134.3h72.2l-5.5,26.9h-40.7
	l-5.4,24.7h39.4l-5.7,26.9H665l-6.1,29h42.8l-5.7,26.9H621.7z"/>
</svg>
